<?xml version="1.0" encoding="utf-8"?>

<!DOCTYPE svg PUBLIC "-//W3C//DTD SVG 1.1//EN" "http://www.w3.org/Graphics/SVG/1.1/DTD/svg11.dtd">
<svg version="1.1" id="Layer_1" xmlns="http://www.w3.org/2000/svg" xmlns:xlink="http://www.w3.org/1999/xlink" x="0px" y="0px"
	 viewBox="0 0 795.434 1635.535" enable-background="new 0 0 795.434 1635.535" xml:space="preserve">
<path d="M750.479,844.738c0.332-3.685,0.542-7.474,2.515-10.705c0.14-2.183,0.262-4.331,0.402-6.479
	c-0.803-0.821-2.392-2.48-3.196-3.3c0.105-31.294-0.14-62.605,0.122-93.898c2.27-2.358,4.366-4.907,5.85-7.858
	c-1.31-0.541-3.912-1.659-5.204-2.2c-0.105-1.31-0.297-3.929-0.402-5.221c4.116-0.605,5.595-3.84,4.85-6.55
	c-2.325-8.457-12.648-9.253-15.959-2.89c-2.35,4.516,1.317,7.205,2.657,11.622c-24.57-2.375-49.019-5.78-73.536-8.592
	c0.122-7.736-0.576-15.507,0.105-23.208c1.135-0.349,3.44-1.048,4.593-1.397c-2.602-8.103-5.152-16.223-7.736-24.308
	c-3.423,8.312-7.701,16.31-10.024,25.042c1.275,0.384,3.807,1.188,5.082,1.572c-0.245,7.125-0.437,14.232-0.629,21.357
	c-14.599-2.497-29.233-4.802-43.797-7.474c-1.572-22.318-3.632-44.583-5.431-66.883c22.44-31.256,17.861-16.369,19.611-54.589
	c6.706,0.908,13.324,2.48,20.1,2.846c0.611-1.013,1.834-3.039,2.445-4.034c-48.159-11.002-12.846,6.819-65.119-21.899
	c-7.282-4.383-16.101-3.65-24.204-5.029c-0.611-24.867-1.31-49.734-1.938-74.584c1.135,0.629,3.37,1.903,4.488,2.532
	c8.276-11.646,10.925-10.247-5.728-31.87c1.95-107.509-2.348-79.827,15.699-118.643c-7.492-5.239-15.053-10.356-22.475-15.647
	c-1.275-8.696-3.947-17.079-6.863-25.356c6.007-4.663,8.05-14.023,2.881-20.03c-3.126-0.664-5.763,0.96-7.753,3.23
	c-1.656-0.049-2.357-0.07-4.013-0.119c-2.952-4.046-6.552-7.54-10.604-10.481c-0.035-1.222-0.07-3.65-0.105-4.872
	c1.048-0.07,3.126-0.192,4.174-0.262c-0.786-7.282-9.308-6.339-14.616-7.055c-20.501-23.365-47.831-39.868-76.819-50.468
	c-0.018-2.759-0.018-5.501-0.018-8.242c-17.114-3.571-13.363-8.193-13.988-13.708c6.025-6.444,2.986-15.595,3.493-23.453
	c-0.506-10.181,1.205-20.641-1.03-30.63c-4.436-7.387-11.106-13.638-18.982-17.218c-2.707-1.327-5.92-2.41-6.863-5.623
	c19.359-4.092,23.297-15.95,19.279-20.921c-7.754-5.501-20.432-1.589-22.684,8.068c-1.153,0.017-3.458,0.035-4.61,0.053
	c-0.611-16.066-1.118-32.132-1.764-48.18c10.301-1.643,14.872-5.165,15.086-19.131c0.018-1.189-1.641-1.498-2.058-0.385
	c-1.542,4.124-1.749,10.173-7.265,13.928c-6.252,3.437-16.41,0.091-16.287-7.865c0.066-4.27,0.464-6.156-1.421-6.464
	c-3.496-0.573-1.797,10.262-1.432,11.85c1.257,4.523,6.095,6.06,9.867,7.858c-0.576,16.118-1.153,32.254-1.729,48.372
	c-8.731,5.256-17.463,10.478-26.194,15.717c2.899,3.493,5.833,6.985,8.731,10.478c-2.899,5.239-5.815,10.478-8.731,15.699
	c-2.323,0.594-4.663,1.187-6.985,1.781c8.804,41.35,8.738,26.063-1.729,67.931c-47.753,4.196-77.01,45.418-87.21,52.319
	c-5.082-0.646-10.163-1.275-15.28-1.083c-3.667,7.719,4.767,14.232,3.178,22.265h-12.469v10.46c1.17,1.17,2.323,2.358,3.475,3.545
	c-3.108,6.234-5.239,12.993-8.993,18.895c-5.85,4.313-12.696,7.038-18.93,10.757c0.808,33.183-3.409,29.042,10.443,37.091
	c-1.118,30.106-2.305,60.23-3.458,90.336c-5.029,4.191-9.832,8.714-13.551,14.145c3.178,3.807,7.334,6.549,11.735,8.766
	c-1.554,26.177-1.694,52.406-2.742,78.601c-20.606,6.549-41.213,13.132-61.819,19.663c-0.786,18.615-1.275,37.248-2.113,55.864
	c3.126,3.842,6.391,7.579,9.674,11.299c3.004,0.227,6.007,0.471,9.011,0.733c3.388,4.296,6.793,8.557,10.163,12.853
	c-2.305,15.699-4.453,31.416-6.688,47.133c-38.192,2.445-76.366,4.837-114.539,7.265c0-0.995,0.018-3.004,0.018-3.999c0,0,0,0,0,0
	c7.959-0.484,2.493-15.727-8.644-10.125c-4.68,2.354-6.615,7.217-2.742,14.962c-1.414,2.096-3.161,4.051-4.086,6.444
	c-1.222,34.751-2.2,69.537-3.65,104.289c-4.949,6.399-5.896,5.083-0.035,15.018c0.07,2.183,0.14,4.366,0.175,6.566
	c-6.985-0.576-13.988-1.153-20.973-1.746c-0.017,9.308-0.017,18.615-0.017,27.941c5.815,0,11.63-0.017,17.463,0
	c-0.018,5.064-0.018,10.146,0.105,15.228c3.266,3.65,5.571,8.016,7.23,12.626c-6.531,0.122-13.045,0.087-19.559,0.087
	c0.576,8.155,1.153,16.293,1.764,24.448c4.645-0.594,9.308-1.17,13.97-1.729c0.559,5.029,0.803,10.111,1.938,15.07
	c0.821,0.314,2.462,0.96,3.283,1.275v7.701c19.321,2.501,23.062,10.703,31.695,24.605c23.786,40.992,14.862,18.146,36.987,74.602
	c14.015,42.561,13.935,2.21-58.777,567.363c416.18,24.656,265.052,24.658,662.696,0c0,0-56.386-446.221-56.386-446.223
	c0.646-46.574,2.724-93.165,3.772-139.756c0.48-15.109-4.482-1.543,49.926-96.605c5.623-9.273,15.245-15.891,25.967-17.638
	c2.829-3.563,5.623-7.125,8.365-10.74c-0.192-5.099-0.314-10.198-0.437-15.28c6.793-0.035,13.586-0.017,20.379-0.017
	c0.017-9.151,0.017-18.319,0-27.469C765.428,844.738,757.953,844.756,750.479,844.738z M129.794,705.401
	c3.615-0.018,7.247-0.018,10.862-0.018c-0.943,22.911-1.921,45.84-2.881,68.752c-3.196-0.314-6.374-0.646-9.552-0.96
	C128.729,750.578,129.305,727.998,129.794,705.401z M143.014,813.549v8.732c-2.916-0.017-5.815-0.017-8.731,0v-8.732
	C137.198,813.532,140.097,813.532,143.014,813.549z M125.551,780.37h5.239v24.448h-5.239V780.37z M129.043,815.296v6.985
	c-2.916-0.017-5.815-0.017-8.731,0v-6.985C123.228,815.278,126.127,815.278,129.043,815.296z M113.344,707.375
	c3.72,0,7.439,0,11.176,0.017c-1.449,21.706-2.881,43.43-4.313,65.154c-3.196-0.367-6.409-0.733-9.605-1.1
	C111.493,750.089,112.401,728.732,113.344,707.375z M108.088,780.37c2.323-0.017,4.663-0.017,6.985,0v24.448
	c-2.323-0.018-4.663-0.018-6.985,0V780.37z M71.416,825.773c-2.323-0.017-4.663-0.017-6.985,0v-8.731
	c2.323-0.018,4.663-0.018,6.985,0V825.773z M64.43,806.564v-31.433h5.239v31.433H64.43z M71.416,766.399
	c-2.916-0.017-5.815-0.017-8.731,0v-57.628c2.916-0.018,5.815-0.018,8.731,0V766.399z M83.64,824.027
	c-2.323-0.017-4.663-0.017-6.985,0v-6.985c2.323-0.018,4.645-0.018,6.985,0V824.027z M85.386,806.564
	c-2.916-0.018-5.815-0.018-8.731,0v-29.687c2.916-0.017,5.815-0.017,8.731,0V806.564z M85.823,767.604
	c-2.934-0.175-5.868-0.349-8.784-0.506c0.524-19.017,1.1-38.034,1.624-57.051c3.458-0.227,6.915-0.419,10.373-0.611
	C87.988,728.819,86.888,748.203,85.823,767.604z M99.356,824.027c-2.916-0.017-5.815-0.017-8.731,0v-6.985
	c2.916-0.018,5.815-0.018,8.731,0V824.027z M101.103,804.818c-2.916-0.018-5.815-0.018-8.732,0v-27.941
	c2.916-0.017,5.815-0.017,8.732,0V804.818z M101.976,770.66c-3.143-0.454-6.287-0.873-9.43-1.31
	c0.995-20.606,2.026-41.213,3.056-61.836c3.824-0.227,7.666-0.437,11.491-0.646C105.416,728.121,103.687,749.391,101.976,770.66z
	 M106.341,815.296c2.323-0.017,4.663-0.017,6.985,0v6.985c-2.323-0.017-4.663-0.017-6.985,0V815.296z M137.495,974.331
	c-10.251-20.31-20.275-40.724-30.63-60.963c12.591,0.279,25.182,0.489,37.79,0.681C142.28,934.148,139.888,954.248,137.495,974.331z
	 M156.984,820.535c-2.916-0.018-5.815-0.018-8.731,0v-6.985c2.916-0.017,5.815-0.017,8.731,0V820.535z M148.252,803.072v-19.209
	h5.239v19.209H148.252z M154.906,776.056c-3.667-0.367-7.334-0.733-11.002-1.1c0.664-23.959,1.362-47.936,2.061-71.912
	c3.982,0.14,7.963,0.279,11.945,0.437C156.914,727.667,155.901,751.853,154.906,776.056z M166.711,776.545
	c-1.362,0.087-4.069,0.262-5.431,0.349c1.449-24.361,2.881-48.722,4.331-73.082c2.707-0.175,5.413-0.332,8.12-0.489
	C171.391,727.719,169.033,752.132,166.711,776.545z M221.3,455.262c-2.847,0.908-3.824-0.07-2.899-2.899
	C221.247,451.455,222.208,452.416,221.3,455.262z M262.739,256.097c-3.597-0.471-8.504-0.437-8.627-5.344
	c3.004,0.175,5.937,0.873,8.784,1.799C262.862,253.443,262.792,255.207,262.739,256.097z M369.979,178.195
	c-2.445,2.689-5.117,5.221-8.609,6.479c0.245-3.126,0.524-6.252,0.734-9.378c0.873-1.712,1.746-3.405,2.619-5.117
	c-0.332-0.576-0.995-1.729-1.31-2.305c2.34-0.192,4.698-0.384,7.055-0.559c-1.03,1.834-2.061,3.667-3.091,5.501
	C368.25,174.598,369.124,176.397,369.979,178.195z M539.125,277.332c3.44-0.279,7.038-0.699,10.303,0.786
	c-1.921,2.934-3.912,5.833-5.885,8.749C542.409,283.549,540.872,280.371,539.125,277.332z M559.802,453.306
	c3.685,3.999,8.609,8.644,8.225,14.512c-1.257,0.873-3.772,2.637-5.012,3.51c0.018-2.934,0.227-6.147-3.51-6.287
	C559.54,461.13,559.609,457.218,559.802,453.306z M658.153,824.778c-0.105,2.829-0.262,5.658-0.419,8.487
	c-1.886-0.192-3.772-0.367-5.641-0.541c-0.087-2.619-0.157-5.221-0.227-7.823C653.962,824.865,656.04,824.813,658.153,824.778z
	 M649.439,811.803v-20.956c2.323-0.018,4.645-0.018,6.985,0v20.956C654.084,811.786,651.761,811.786,649.439,811.803z
	 M647.692,715.757c2.899-0.017,5.815-0.017,8.732,0v64.613c-2.916-0.017-5.833-0.017-8.732,0V715.757z M633.722,714.011
	c2.899-0.018,5.815-0.018,8.731,0v68.105c-2.916-0.017-5.833-0.017-8.731,0V714.011z M626.754,788.455
	c-3.335-6.516-8.102-70.578-8.417-75.44c2.951-0.07,5.937-0.122,8.906-0.175C626.946,738.04,627.89,763.273,626.754,788.455z
	 M633.722,792.594c2.899-0.017,5.815-0.017,8.731,0v17.463c-2.916-0.017-5.833-0.017-8.731,0V792.594z M634.194,828.41
	c0.052-2.061,0.087-4.104,0.157-6.129c3.37,0,6.741,0.017,10.129,0.07c-0.157,2.986-0.297,5.99-0.419,8.993
	C638.685,830.48,641.641,831.178,634.194,828.41z M641.388,918.222c5.012-0.367,10.006-0.733,15.018-1.083
	c-4.628,8.365-9.255,16.764-13.935,25.112C642.069,934.236,641.72,926.238,641.388,918.222z M661.366,1086.617
	c-2.986-12.905-6.549-25.67-9.884-38.488c3.3-2.934,6.583-5.92,9.849-8.924C661.296,1055.009,661.942,1070.813,661.366,1086.617z
	 M645.475,989.349c3.44-11.77,9.832-22.405,14.704-33.616c0.629,4.331,1.257,8.679,1.868,13.045
	C656.494,975.605,651.988,983.359,645.475,989.349z M666.902,719.25h5.239v61.12h-5.239V719.25z M668.648,815.296v-26.194h3.493
	v26.194H668.648z M672.141,827.52c-0.017,2.322-0.017,4.645,0,6.985h-3.493v-6.985H672.141z M666.552,952.362
	c0.472-3.493,0.995-6.933,1.537-10.39c3.126-0.646,6.269-1.257,9.395-1.869C674.254,944.434,673.153,952.415,666.552,952.362z
	 M686.111,764.653c-2.916-0.017-5.833-0.017-8.732,0v-43.657c2.899-0.017,5.815-0.017,8.732,0V764.653z M693.183,771.9
	c-0.524-15.996-0.891-31.992-1.345-47.988c2.776-0.017,5.553-0.017,8.347,0C699.972,772.382,702.163,760.53,693.183,771.9z
	 M714.122,750.229c-2.759,2.864-5.518,5.728-8.278,8.592c-0.035-11.351-0.017-22.684,0-34.018c2.881,0.087,5.798,0.192,8.697,0.314
	C714.383,733.482,714.244,741.864,714.122,750.229z M727.987,736.677c-2.55,2.672-5.099,5.344-7.631,8.016
	c-0.471-6.042-0.943-12.067-1.38-18.092c3.108,0.052,6.217,0.087,9.36,0.122C728.214,730.042,728.092,733.359,727.987,736.677z"/>
</svg>
